<svg xmlns="http://www.w3.org/2000/svg" height="385.2" width="845.7" viewBox="0 0 845.7 385.2"><g stroke="#fff" stroke-miterlimit="10" fill="none"><path d="M179.2 85.2L0 170.5l28.1-85.3L137 12.4z"/><path d="M219.9 150l-40.7-64.8L137 12.4 219.9 50zM304 75l-84.1 75V50l150-25.3z"/><path d="M448 124.8L304 75l65.9-50.3 50 25.3zM759.2 98.4L619.9 150V50l70.3-50z"/><path d="M800 170.5l-40.8-72.1-69-98.4 137.9 85.2zM569.9 91.4L448 124.8 419.9 50l100-37.6z"/><path d="M619.9 150l-50-58.6-50-79 100 37.6zM89.6 200l-43.9 50L0 170.5l179.2-85.3z"/><path d="M294.9 282.9L89.6 200l89.6-114.8 40.7 64.8z"/><path d="M319.9 250l-25 32.9-75-132.9L304 75z"/><path d="M464.9 158.2l-145 91.8L304 75l144 49.8zM697.5 217.9l-50.9-8.8-26.7-59.1 139.3-51.6z"/><path d="M845.7 250l-148.2-32.1 61.7-119.5 40.8 72.1zM519.9 250l-55-91.8-16.9-33.4 121.9-33.4zM646.6 209.1L519.9 250l50-158.6 50 58.6zM137 312.4L28.1 385.2 45.7 250l43.9-50z"/><path d="M219.9 350L137 312.4 89.6 200l205.3 82.9z"/><path d="M369.9 324.7l-150 25.3 75-67.1 25-32.9z"/><path d="M419.9 350l-50-25.3-50-74.7 145-91.8zM690.2 300l-70.3 50 26.7-140.9 50.9 8.8z"/><path d="M828.1 385.2L690.2 300l7.3-82.1L845.7 250zM519.9 312.4l-100 37.6 45-191.8 55 91.8zM619.9 350l-100-37.6V250l126.7-40.9z"/></g></svg>