<svg style="position: absolute; width: 0; height: 0; overflow: hidden;" version="1.1" xmlns="http://www.w3.org/2000/svg">
<defs>
<symbol id="logo" viewBox="0 0 16 16">
<path d="M10.098 3.919c-0.565 0.565-1.525 2.197-2.063 3.508l-0.197 0.485-0.405 0.059c-0.224 0.037-0.704 0.149-1.066 0.256-0.368 0.101-0.677 0.181-0.688 0.165-0.011-0.011 0.037-0.293 0.107-0.629 0.592-2.73 0.053-4.047-1.429-3.498-0.357 0.133-0.464 0.251-0.352 0.384 0.059 0.069 0.128 0.080 0.357 0.048 0.24-0.027 0.304-0.016 0.395 0.064 0.288 0.261 0.4 0.826 0.32 1.599-0.091 0.8-0.325 2.271-0.384 2.378-0.027 0.048-0.16 0.155-0.293 0.235-0.704 0.411-1.413 1.146-1.722 1.781-0.165 0.341-0.192 0.453-0.192 0.773 0 0.293 0.027 0.416 0.123 0.565 0.133 0.219 0.432 0.368 0.736 0.368 0.261 0 0.666-0.224 0.901-0.491 0.288-0.341 0.725-1.253 1.013-2.133l0.261-0.773 0.347-0.139c0.437-0.165 1.349-0.448 1.615-0.496l0.203-0.032-0.080 0.229c-0.149 0.421-0.293 1.258-0.293 1.711 0 0.746 0.219 1.269 0.533 1.269 0.245 0 0.288-0.107 0.155-0.432-0.203-0.501-0.123-1.461 0.203-2.453 0.123-0.373 0.149-0.411 0.293-0.443 0.203-0.043 0.736-0.043 0.736 0 0 0.027-0.075 0.57-0.139 0.954-0.011 0.085-0.048 0.725-0.080 1.413-0.064 1.424-0.048 1.546 0.219 1.546 0.197 0 0.453-0.123 0.501-0.24 0.016-0.048 0.032-0.213 0.032-0.368 0-0.352 0.149-1.482 0.203-1.53 0.021-0.021 0.187-0.080 0.373-0.128 0.965-0.245 1.717-0.656 2.335-1.274 0.805-0.81 1.002-1.631 0.597-2.479-0.16-0.347-0.901-1.061-1.312-1.274-0.427-0.229-1.024-0.432-1.381-0.475-0.155-0.016-0.283-0.043-0.283-0.053s0.059-0.101 0.133-0.197c0.32-0.421 0.043-0.634-0.331-0.256zM10.956 5.252c0.746 0.245 1.386 0.757 1.674 1.344 0.192 0.389 0.203 1.029 0.027 1.36-0.24 0.453-0.768 0.933-1.376 1.237-0.283 0.144-1.205 0.453-1.242 0.416-0.016-0.016 0-0.272 0.032-0.565 0.059-0.475 0.080-0.554 0.197-0.645 0.144-0.112 0.176-0.315 0.059-0.411-0.064-0.053-0.059-0.128 0.027-0.501 0.053-0.24 0.16-0.656 0.24-0.917 0.224-0.757 0.256-0.976 0.16-1.12s-0.299-0.192-0.549-0.123c-0.155 0.043-0.208 0.096-0.32 0.347-0.128 0.277-0.549 1.855-0.549 2.053 0 0.085-0.053 0.096-0.405 0.096h-0.405l0.037-0.149c0.064-0.283 0.656-1.615 0.938-2.122l0.283-0.512 0.379 0.037c0.203 0.021 0.56 0.101 0.794 0.176zM4.489 9.81c-0.059 0.16-0.24 0.565-0.411 0.896-0.427 0.837-0.704 1.125-0.949 0.997-0.080-0.043-0.091-0.096-0.069-0.288 0.037-0.352 0.288-0.794 0.704-1.237 0.347-0.373 0.768-0.73 0.81-0.688 0.011 0.011-0.032 0.155-0.085 0.32z"></path>
<path d="M1.077 5.572c-0.363 0.181-0.384 0.256-0.395 1.296-0.011 1.093-0.043 1.178-0.443 1.285-0.224 0.064-0.24 0.080-0.224 0.224 0.016 0.133 0.043 0.165 0.197 0.197 0.096 0.021 0.24 0.101 0.32 0.176 0.139 0.139 0.139 0.149 0.144 1.024 0.005 0.565 0.032 0.938 0.075 1.040 0.091 0.213 0.4 0.368 0.746 0.368 0.261 0 0.267-0.005 0.267-0.16 0-0.139-0.021-0.16-0.144-0.16-0.203 0-0.485-0.181-0.522-0.331-0.011-0.069-0.032-0.501-0.037-0.96l-0.016-0.837-0.155-0.16c-0.091-0.091-0.197-0.165-0.24-0.165-0.053 0-0.021-0.043 0.075-0.107 0.304-0.197 0.347-0.357 0.347-1.306 0.005-0.586 0.021-0.88 0.069-0.938 0.096-0.128 0.277-0.208 0.459-0.208 0.155 0 0.165-0.016 0.165-0.187v-0.187h-0.251c-0.144 0-0.336 0.043-0.437 0.096z"></path>
<path d="M14.294 5.657c0 0.171 0.011 0.181 0.219 0.208 0.416 0.053 0.443 0.123 0.475 1.173 0.027 0.965 0.059 1.088 0.293 1.242l0.123 0.080-0.192 0.181-0.197 0.176-0.027 0.901c-0.016 0.565-0.053 0.938-0.091 1.008-0.069 0.117-0.32 0.235-0.501 0.235-0.075 0-0.101 0.037-0.101 0.16 0 0.16 0.005 0.16 0.283 0.16 0.181 0 0.336-0.037 0.448-0.107 0.315-0.192 0.336-0.267 0.352-1.274l0.011-0.922 0.176-0.155c0.096-0.085 0.229-0.155 0.304-0.155 0.117 0 0.133-0.021 0.133-0.187s-0.016-0.187-0.181-0.219c-0.101-0.016-0.24-0.091-0.309-0.165-0.117-0.128-0.123-0.165-0.133-1.093-0.011-1.088-0.032-1.157-0.405-1.328-0.123-0.053-0.325-0.101-0.448-0.101-0.224 0-0.229 0.005-0.229 0.181z"></path>
</symbol>
<symbol id="userrole" viewBox="0 0 16 16">
<path d="M4.667 12.667q0 0.271-0.198 0.469t-0.469 0.198-0.469-0.198-0.198-0.469 0.198-0.469 0.469-0.198 0.469 0.198 0.198 0.469zM15.333 13.302q0 1.26-0.76 1.979t-2.021 0.719h-9.104q-1.26 0-2.021-0.719t-0.76-1.979q0-0.708 0.057-1.365t0.25-1.437 0.495-1.38 0.844-1.073 1.25-0.63q-0.229 0.542-0.229 1.25v2.115q-0.604 0.208-0.969 0.729t-0.365 1.156q0 0.833 0.583 1.417t1.417 0.583 1.417-0.583 0.583-1.417q0-0.635-0.37-1.156t-0.964-0.729v-2.115q0-0.646 0.26-0.969 1.375 1.083 3.073 1.083t3.073-1.083q0.26 0.323 0.26 0.969v0.667q-1.104 0-1.885 0.781t-0.781 1.885v0.927q-0.333 0.302-0.333 0.74 0 0.417 0.292 0.708t0.708 0.292 0.708-0.292 0.292-0.708q0-0.438-0.333-0.74v-0.927q0-0.542 0.396-0.937t0.937-0.396 0.937 0.396 0.396 0.937v0.927q-0.333 0.302-0.333 0.74 0 0.417 0.292 0.708t0.708 0.292 0.708-0.292 0.292-0.708q0-0.438-0.333-0.74v-0.927q0-0.708-0.359-1.328t-0.974-0.974q0-0.104 0.005-0.443t0-0.5-0.026-0.432-0.073-0.49-0.135-0.417q0.708 0.156 1.25 0.63t0.844 1.073 0.495 1.38 0.25 1.437 0.057 1.365zM12 4q0 1.656-1.172 2.828t-2.828 1.172-2.828-1.172-1.172-2.828 1.172-2.828 2.828-1.172 2.828 1.172 1.172 2.828z"></path>
</symbol>
<symbol id="addfile" viewBox="0 0 16 16">
<path d="M10.667 3.81v1.524h-4.571v-1.524h4.571zM10.667 6.857h-6.857v-0.762h6.857v0.762zM3.81 7.619h6.095v0.762h-6.095v-0.762zM3.81 9.905v-0.762h5.333v0.762h-5.333zM10.667 9.143h2.286v2.286h2.286v2.286h-2.286v2.286h-2.286v-2.286h-2.286v-2.286h2.286v-2.286zM13.714 0v7.619h-1.524v-6.095h-9.905v12.952h5.061l0.762 1.524h-7.347v-16h12.952z"></path>
</symbol>
<symbol id="flag" viewBox="0 0 16 16">
<path d="M15.754 3.619c-8.178 11.881-5.379-0.228-12.292 5.567l1.572 6.182h-1.768l-3.209-12.619 1.62-0.581c7.749-5.667 3.702 5.097 13.693 1.098 0.319-0.129 0.574 0.079 0.384 0.354z"></path>
</symbol>
</defs>
</svg>
